<svg id="Layer_1" data-name="Layer 1" xmlns="http://www.w3.org/2000/svg" viewBox="0 0 889.66 933.67"><defs><style>.cls-1{fill:#27aae1;stroke:#f7941d;stroke-miterlimit:10;}.cls-2{fill:#f7941d;}</style></defs><title>Untitled-1</title><path class="cls-1" d="M914.62,616.54c60.53-160.35,2.55-332-98.84-439.29C691.56,45.8,494.08,2.34,325.23,71.08,178,131,54.54,275.53,50.67,448.14c-5,223.54,192.4,409.26,406.35,432C635.2,899,842.81,806.78,914.62,616.54Z" transform="translate(-50.08 -38.26)"/><path class="cls-2" d="M179.35,544.6c1.59,9.56,13,6.39,18.64,2.65,4.71-3.13,7.69-7.88,11-12.36q6.9-9.35,13.61-18.83c17.29-24.45,33.62-49.6,48.61-75.53,29.66-51.33,54.22-106,69.24-163.49a488.45,488.45,0,0,0,15.4-98.13c.14-2.61-3.38-3.22-4.66-1.26-33,50.68-57.91,106-82.45,161.07-24.4,54.78-48.6,110-80.72,160.83-18.1,28.64-38.8,55.59-62.78,79.57h3.54c-3.38-3.58-2.57-8.79,0-12.62,3.46-5.09,9.86-6.63,15.65-7.13,10.53-.91,21.25-.23,31.82-.74a450.9,450.9,0,0,0,61.81-7.34,456.62,456.62,0,0,0,121-41.13,447.61,447.61,0,0,0,62-38c2.57-1.88.08-6.22-2.52-4.32-74.88,54.66-166.59,85.39-259.35,86.26-10.41.1-23.53-1.3-31.83,6.44-6.12,5.71-8.14,15.68-2.09,22.09a2.53,2.53,0,0,0,3.54,0c42.4-42.37,74-93.74,100.67-147.07,27.18-54.33,49.81-110.79,76.24-165.47,14.93-30.88,31.1-61.18,49.83-89.94l-4.66-1.26c-5.78,111.15-52.94,215.15-113.56,306.84Q224.45,505.19,210.76,524c-4.05,5.6-7.94,12.49-13,17.15-2.58,2.35-12.46,8.57-13.54,2.09-.53-3.17-5.34-1.82-4.82,1.33Z" transform="translate(-50.08 -38.26)"/><path class="cls-2" d="M403.18,388.23A98.78,98.78,0,0,0,363.32,440c-3.19,9.66-5.83,21.27-4.46,31.48,1.4,10.43,10.37,14.22,19.74,10.82,10.34-3.75,19.82-11.95,28-19.15a162.75,162.75,0,0,0,22.88-25,158.05,158.05,0,0,0,18.19-31.54c3.68-8.52,7.95-20.58-.1-28.07s-21.11-3.39-29.91.29A80.25,80.25,0,0,0,386,402.67c-2,2.48,1.52,6,3.54,3.54a76.73,76.73,0,0,1,22.13-19c7.66-4.32,18.64-9.61,27.7-7.46,20.42,4.83-4.88,42.44-11,51.3a155.71,155.71,0,0,1-41.13,40.73c-8.12,5.46-22.85,12.56-23.62-3.23-.43-8.85,1.6-18.17,4.3-26.55a93.32,93.32,0,0,1,37.8-49.49c2.69-1.74.19-6.08-2.52-4.32Z" transform="translate(-50.08 -38.26)"/><path class="cls-2" d="M492.7,374.74a13.71,13.71,0,0,0-5-10.53,2.58,2.58,0,0,0-3-.39A149.67,149.67,0,0,0,438,408.92c-4.92,7.49-9.88,16.69-4.24,25.21,4.77,7.21,13.87,9.9,22.08,8.53,10.26-1.72,19.4-8.41,27.18-15a110,110,0,0,0,33.24-49.15c2.48-7.47,6.81-19.08,2.43-26.6-5.29-9.09-18.15-5.38-25.82-2.26a63.64,63.64,0,0,0-26.35,20.09c-1.95,2.51,1.57,6.08,3.54,3.54a60.25,60.25,0,0,1,18.52-16.06c5.77-3.19,17.5-9.11,23.94-4.74,6.61,4.48.87,18.84-1.08,24.71A104.08,104.08,0,0,1,501,399.38c-8.64,13.87-20.81,26.49-35.24,34.37-8.16,4.46-19,6.89-26.34-.54-7.45-7.6,0-17.64,4.74-24.49a143.94,143.94,0,0,1,43-40.57l-3-.39a8.85,8.85,0,0,1,3.5,7c.11,3.21,5.11,3.22,5,0Z" transform="translate(-50.08 -38.26)"/><path class="cls-2" d="M525.83,368.85a281.51,281.51,0,0,0,91.09-89.4l-4.32-2.52q-51.73,99.56-105.57,198-26.92,49.22-54.38,98.14c-17,30.23-33.93,60.55-53.69,89.08-5.55,8-11.3,15.87-17.35,23.51-5.22,6.6-10.5,14.73-17.69,19.32-2.75,1.76-6.27,3.55-9.63,3.42-6.46-.24-4.85-7.18-2.85-11.34,4.67-9.72,10-19.18,15-28.75,1.48-2.85-2.83-5.38-4.32-2.52-4.71,9-9.44,18.06-14.12,27.12-2.76,5.36-5.82,12.45-.93,17.63,8.47,9,22.78-3,28.35-9.46,24-28,43.65-59.21,62-91,40-69.06,77.94-139.34,115.64-209.65q32.32-60.28,63.85-121a2.5,2.5,0,0,0-4.32-2.52,275.91,275.91,0,0,1-89.3,87.61c-2.74,1.67-.23,6,2.52,4.32Z" transform="translate(-50.08 -38.26)"/><path class="cls-2" d="M549,380.83a162.28,162.28,0,0,1,96.4-80.25l-3.08-3.08a101,101,0,0,1-54.14,66.56c-2.92,1.4-.37,5.64,2.52,4.32a215.48,215.48,0,0,0,101.85-97.45l-4.66-1.26,4.75,45.1a2.53,2.53,0,0,0,3.76,2.16,207.12,207.12,0,0,0,76.5-76.05c1.62-2.8-2.62-5.25-4.32-2.52Q670.14,396.09,581.16,559.46c-29,53.33-57,107.21-84.86,161.15-25.59,49.51-51.9,98.84-83.37,144.92-17.78,26-37.19,51.16-59,74-15.84,16.56-49.33,40.73-70.66,19.5-2.28-2.27-5.82,1.26-3.54,3.54,17,16.93,41.91,8.11,59.17-3.69,10.65-7.28,19.41-16.48,28-26q14.09-15.73,27-32.5c35.11-45.49,63.77-95.5,90.59-146.19,28.44-53.74,55.75-108.05,84.53-161.61q45.14-84,92.83-166.63,53.94-93.45,111.08-185l-4.32-2.52a202,202,0,0,1-74.71,74.26l3.76,2.16-4.75-45.1c-.24-2.24-3.42-3.69-4.66-1.26a211.15,211.15,0,0,1-100.06,95.66l2.52,4.32a105.81,105.81,0,0,0,56.44-69.55,2.52,2.52,0,0,0-3.08-3.08,167.3,167.3,0,0,0-99.39,82.55c-1.48,2.85,2.84,5.39,4.32,2.52Z" transform="translate(-50.08 -38.26)"/></svg>